<svg width="318" height="19" viewBox="0 0 318 19" fill="none" xmlns="http://www.w3.org/2000/svg">
<path d="M8.23295 18.2045C11.9723 18.2045 14.9957 15.1811 14.983 11.4545C14.9702 7.72798 11.9723 4.70455 8.23295 4.70455C4.51918 4.70455 1.49574 7.72798 1.48295 11.4545C1.47017 15.1811 4.51918 18.2045 8.23295 18.2045ZM8.23295 16.7216C5.32457 16.7216 2.95312 14.3501 2.96591 11.4609C2.97869 8.55256 5.33736 6.1875 8.23295 6.1875C11.1413 6.1875 13.4872 8.53977 13.5 11.4609C13.5128 14.3629 11.1541 16.7216 8.23295 16.7216ZM4.5 11.4545C4.5 13.5511 6.20028 15.2514 8.29688 15.2514C10.1122 15.2514 11.5057 13.973 11.7486 12.2727H10.2017C10.0227 13.1484 9.28125 13.7685 8.29688 13.7685C7.01847 13.7685 5.98295 12.733 5.98295 11.4545C5.98295 10.1761 7.01847 9.14062 8.29688 9.14062C9.28125 9.14062 10.157 9.76065 10.3295 10.6364H11.8764C11.6335 8.93608 10.1122 7.65767 8.29688 7.65767C6.20028 7.65767 4.5 9.35795 4.5 11.4545ZM22.8883 18H31.1468V16.5938H25.0616V16.4915L28.002 13.3466C30.252 10.9368 30.9167 9.81179 30.9167 8.3608C30.9167 6.34091 29.2804 4.73011 26.9792 4.73011C24.6845 4.73011 22.9395 6.28977 22.9395 8.59091H24.448C24.448 7.10156 25.4132 6.1108 26.9281 6.1108C28.3471 6.1108 29.4338 6.98011 29.4338 8.3608C29.4338 9.56889 28.7243 10.4638 27.2093 12.1193L22.8883 16.8494V18ZM38.0566 18.179C40.9458 18.179 42.6078 15.7308 42.6078 11.4545C42.6078 7.21023 40.9203 4.73011 38.0566 4.73011C35.193 4.73011 33.5055 7.21023 33.5055 11.4545C33.5055 15.7308 35.1674 18.179 38.0566 18.179ZM38.0566 16.7727C36.1518 16.7727 35.0396 14.8615 35.0396 11.4545C35.0396 8.05398 36.1646 6.1108 38.0566 6.1108C39.9487 6.1108 41.0737 8.05398 41.0737 11.4545C41.0737 14.8615 39.9615 16.7727 38.0566 16.7727ZM45.0368 18H53.2953V16.5938H47.21V16.4915L50.1504 13.3466C52.4004 10.9368 53.0652 9.81179 53.0652 8.3608C53.0652 6.34091 51.4288 4.73011 49.1277 4.73011C46.8329 4.73011 45.0879 6.28977 45.0879 8.59091H46.5964C46.5964 7.10156 47.5616 6.1108 49.0765 6.1108C50.4956 6.1108 51.5822 6.98011 51.5822 8.3608C51.5822 9.56889 50.8727 10.4638 49.3578 12.1193L45.0368 16.8494V18ZM60.2051 18.179C63.0943 18.179 64.7562 15.7308 64.7562 11.4545C64.7562 7.21023 63.0687 4.73011 60.2051 4.73011C57.3414 4.73011 55.6539 7.21023 55.6539 11.4545C55.6539 15.7308 57.3159 18.179 60.2051 18.179ZM60.2051 16.7727C58.3002 16.7727 57.188 14.8615 57.188 11.4545C57.188 8.05398 58.313 6.1108 60.2051 6.1108C62.0971 6.1108 63.2221 8.05398 63.2221 11.4545C63.2221 14.8615 62.1099 16.7727 60.2051 16.7727ZM72.4778 4.90909V18H73.9608V8.05398H74.0886L78.1795 18H79.6113L83.7022 8.05398H83.8301V18H85.313V4.90909H83.421L78.9721 15.7756H78.8187L74.3699 4.90909H72.4778ZM92.4034 18.2045C94.3977 18.2045 95.8551 17.2074 96.3153 15.7244L94.858 15.3153C94.4744 16.3381 93.5859 16.8494 92.4034 16.8494C90.6328 16.8494 89.4119 15.7053 89.3416 13.6023H96.4688V12.9631C96.4688 9.30682 94.2955 8.05398 92.25 8.05398C89.5909 8.05398 87.8267 10.1506 87.8267 13.1676C87.8267 16.1847 89.5653 18.2045 92.4034 18.2045ZM89.3416 12.2983C89.4439 10.7706 90.5241 9.40909 92.25 9.40909C93.8864 9.40909 94.9347 10.6364 94.9347 12.2983H89.3416ZM105.718 10.3807C105.245 8.98722 104.184 8.05398 102.241 8.05398C100.17 8.05398 98.6357 9.23011 98.6357 10.892C98.6357 12.2472 99.4411 13.1548 101.244 13.5767L102.88 13.9602C103.871 14.1903 104.337 14.6634 104.337 15.3409C104.337 16.1847 103.442 16.875 102.036 16.875C100.803 16.875 100.029 16.3445 99.7607 15.2898L98.3288 15.6477C98.6804 17.3161 100.055 18.2045 102.062 18.2045C104.344 18.2045 105.897 16.9581 105.897 15.2642C105.897 13.8963 105.04 13.0334 103.289 12.6051L101.832 12.2472C100.668 11.9595 100.144 11.5696 100.144 10.8153C100.144 9.97159 101.039 9.35795 102.241 9.35795C103.558 9.35795 104.101 10.0866 104.363 10.7642L105.718 10.3807ZM112.438 8.18182H110.341V5.82955H108.833V8.18182H107.35V9.46023H108.833V15.5966C108.833 17.3097 110.213 18.1278 111.492 18.1278C112.054 18.1278 112.412 18.0256 112.617 17.9489L112.31 16.5938C112.182 16.6193 111.977 16.6705 111.645 16.6705C110.98 16.6705 110.341 16.4659 110.341 15.1875V9.46023H112.438V8.18182ZM118.59 18.2045C121.249 18.2045 123.039 16.1847 123.039 13.142C123.039 10.0739 121.249 8.05398 118.59 8.05398C115.931 8.05398 114.141 10.0739 114.141 13.142C114.141 16.1847 115.931 18.2045 118.59 18.2045ZM118.59 16.8494C116.57 16.8494 115.65 15.1108 115.65 13.142C115.65 11.1733 116.57 9.40909 118.59 9.40909C120.61 9.40909 121.53 11.1733 121.53 13.142C121.53 15.1108 120.61 16.8494 118.59 16.8494ZM130.609 18H132.194V12.8864H135.058C135.173 12.8864 135.281 12.8864 135.39 12.88L138.151 18H139.992L137.033 12.5923C138.701 12.0234 139.481 10.6619 139.481 8.9233C139.481 6.60938 138.1 4.90909 135.032 4.90909H130.609V18ZM132.194 11.4545V6.31534H134.981C137.103 6.31534 137.921 7.35085 137.921 8.9233C137.921 10.4957 137.103 11.4545 135.006 11.4545H132.194ZM148.105 13.9858C148.105 15.8267 146.699 16.6705 145.574 16.6705C144.321 16.6705 143.426 15.75 143.426 14.3182V8.18182H141.918V14.4205C141.918 16.9261 143.247 18.1278 145.088 18.1278C146.571 18.1278 147.543 17.3352 148.003 16.3381H148.105V18H149.614V8.18182H148.105V13.9858ZM159.331 10.3807C158.858 8.98722 157.797 8.05398 155.854 8.05398C153.783 8.05398 152.249 9.23011 152.249 10.892C152.249 12.2472 153.054 13.1548 154.857 13.5767L156.493 13.9602C157.484 14.1903 157.951 14.6634 157.951 15.3409C157.951 16.1847 157.056 16.875 155.65 16.875C154.416 16.875 153.642 16.3445 153.374 15.2898L151.942 15.6477C152.294 17.3161 153.668 18.2045 155.675 18.2045C157.957 18.2045 159.51 16.9581 159.51 15.2642C159.51 13.8963 158.654 13.0334 156.902 12.6051L155.445 12.2472C154.282 11.9595 153.757 11.5696 153.757 10.8153C153.757 9.97159 154.652 9.35795 155.854 9.35795C157.171 9.35795 157.714 10.0866 157.976 10.7642L159.331 10.3807ZM168.736 10.3807C168.263 8.98722 167.202 8.05398 165.258 8.05398C163.187 8.05398 161.653 9.23011 161.653 10.892C161.653 12.2472 162.459 13.1548 164.261 13.5767L165.898 13.9602C166.888 14.1903 167.355 14.6634 167.355 15.3409C167.355 16.1847 166.46 16.875 165.054 16.875C163.82 16.875 163.047 16.3445 162.778 15.2898L161.346 15.6477C161.698 17.3161 163.072 18.2045 165.079 18.2045C167.361 18.2045 168.915 16.9581 168.915 15.2642C168.915 13.8963 168.058 13.0334 166.307 12.6051L164.849 12.2472C163.686 11.9595 163.162 11.5696 163.162 10.8153C163.162 9.97159 164.057 9.35795 165.258 9.35795C166.575 9.35795 167.118 10.0866 167.381 10.7642L168.736 10.3807ZM171.185 18H172.694V8.18182H171.185V18ZM171.952 6.54545C172.54 6.54545 173.026 6.08523 173.026 5.52273C173.026 4.96023 172.54 4.5 171.952 4.5C171.364 4.5 170.879 4.96023 170.879 5.52273C170.879 6.08523 171.364 6.54545 171.952 6.54545ZM178.346 18.2301C180.059 18.2301 180.954 17.3097 181.261 16.6705H181.338V18H182.846V11.5312C182.846 8.41193 180.468 8.05398 179.215 8.05398C177.732 8.05398 176.045 8.56534 175.278 10.3551L176.71 10.8665C177.042 10.1506 177.828 9.38352 179.267 9.38352C180.654 9.38352 181.338 10.1186 181.338 11.3778V11.429C181.338 12.1577 180.596 12.0938 178.806 12.3239C176.985 12.5604 174.997 12.9631 174.997 15.2131C174.997 17.1307 176.48 18.2301 178.346 18.2301ZM178.576 16.875C177.374 16.875 176.505 16.3381 176.505 15.2898C176.505 14.1392 177.553 13.7812 178.73 13.6278C179.369 13.5511 181.082 13.3722 181.338 13.0653V14.446C181.338 15.6733 180.366 16.875 178.576 16.875Z" fill="#545454"/>
</svg>
